<?xml version="1.0" encoding="utf-8"?>
<!-- Generated by IcoMoon.io -->
<!DOCTYPE svg PUBLIC "-//W3C//DTD SVG 1.1//EN" "http://www.w3.org/Graphics/SVG/1.1/DTD/svg11.dtd">
<svg version="1.1" xmlns="http://www.w3.org/2000/svg" xmlns:xlink="http://www.w3.org/1999/xlink" width="22" height="22" viewBox="0 0 22 22">
<path fill="#444444" d="M10.526 10.199h0.772v-3.917h-0.772v3.917z"></path>
<path fill="#444444" d="M7.437 10.199h0.796v-3.917h-0.796v3.917z"></path>
<path fill="#444444" d="M13.423 10.199h0.788v-3.917h-0.788v3.917z"></path>
<path fill="#444444" d="M6.673 4.833c-0.16 0.136-0.024 0.502 0.295 0.772 0.327 0.31 0.859 0.271 0.859 0.271-0.024-0.024 0.024-0.502-0.286-0.788-0.312-0.295-0.693-0.414-0.868-0.255z"></path>
<path fill="#444444" d="M9.738 4.833c-0.176 0.159-0.041 0.502 0.271 0.788 0.326 0.294 0.883 0.255 0.868 0.271 0-0.040 0.040-0.502-0.271-0.812-0.327-0.263-0.717-0.382-0.868-0.248z"></path>
<path fill="#444444" d="M12.651 4.833c-0.159 0.136-0.024 0.486 0.287 0.772 0.335 0.295 0.868 0.255 0.852 0.271 0-0.040 0.040-0.502-0.271-0.788-0.327-0.295-0.709-0.414-0.868-0.255z"></path>
<path fill="#444444" d="M8.52 16.592c0.693 0.079 1.409 0.119 2.142 0.135v-4.745c-0.812-0.024-1.521-0.079-2.142-0.135v4.745zM7.986 11.783c-0.908-0.095-1.616-0.246-2.237-0.421l-0.023 4.736c0.716 0.192 1.473 0.327 2.261 0.446v-4.761zM13.503 11.823c-0.827 0.072-1.608 0.119-2.301 0.159v4.745c0.789-0.024 1.545-0.056 2.301-0.135v-4.769zM16.098 11.401c-0.693 0.151-1.385 0.262-2.077 0.366v4.744c0.732-0.096 1.425-0.23 2.085-0.405v-4.705h-0.008zM16.663 15.978c0.693-0.215 1.329-0.446 1.887-0.716l0.024-4.672c-0.621 0.262-1.25 0.493-1.902 0.677v4.712h-0.008zM5.208 11.186c-0.661-0.215-1.194-0.43-1.791-0.596v4.672c0.541 0.255 1.139 0.486 1.8 0.677v-4.753h-0.008zM15.39 8.289v-0.486c1.425 0.295 2.699 0.717 3.725 1.258l-0.024 6.48c-1.981 1.019-4.88 1.672-8.119 1.672s-6.154-0.652-8.096-1.688v-6.504c0.979-0.502 2.197-0.9 3.566-1.194v0.525c-1.194 0.255-2.181 0.581-3.024 0.979v0.693c2.125 1.011 4.498 1.432 7.555 1.432 3.71 0 5.517-0.597 7.579-1.432v-0.693c-0.908-0.422-1.983-0.772-3.161-1.042z"></path>
</svg>
