<?xml version="1.0" encoding="utf-8"?>
<!-- Generated by IcoMoon.io -->
<!DOCTYPE svg PUBLIC "-//W3C//DTD SVG 1.1//EN" "http://www.w3.org/Graphics/SVG/1.1/DTD/svg11.dtd">
<svg version="1.1" xmlns="http://www.w3.org/2000/svg" xmlns:xlink="http://www.w3.org/1999/xlink" width="15" height="22" viewBox="0 0 15 22">
<path fill="#444444" d="M15.451 17.895c0-0.692-0.553-1.245-1.199-1.245h-13.052c-0.646 0-1.199 0.553-1.199 1.245v0c0 0.692 0.553 1.245 1.199 1.245h13.052c0.646 0 1.199-0.553 1.199-1.245v0zM14.897 5.119h-14.39c0-0.138-0.046-0.323-0.046-0.507 0-2.537 3.229-4.612 7.241-4.612s7.241 2.075 7.241 4.658c0 0.138-0.046 0.323-0.046 0.461zM15.128 5.811h-14.805v0.553c0 0 1.753-0.138 3.136 0.277s2.398 1.153 2.398 1.153 1.614-0.692 3.828-1.061c2.444-0.415 5.488 0.046 5.488 0.046v-0.969zM15.451 14.759c0-0.692-0.553-1.245-1.199-1.245h-13.052c-0.646-0.046-1.199 0.507-1.199 1.245v0c0 0.692 0.553 1.245 1.199 1.245h13.052c0.646 0 1.199-0.553 1.199-1.245v0zM14.805 19.878h-14.252c-0.046 0.138-0.046 0.277-0.046 0.415 0 1.753 3.229 1.753 7.149 1.753 3.966 0 7.195 0.046 7.195-1.753 0-0.138 0-0.277-0.046-0.415zM15.451 11.53c0-0.692-0.553-1.245-1.199-1.245h-13.052c-0.646-0.046-1.199 0.553-1.199 1.245v0c0 0.692 0.553 1.245 1.199 1.245h13.052c0.646 0 1.199-0.553 1.199-1.245v0zM15.082 7.379c-0.369-0.046-3.182-0.415-5.442 0-2.214 0.369-3.828 1.061-3.828 1.061s-1.015-0.738-2.398-1.153c-0.507-0.138-1.061-0.231-1.568-0.277h-0.646c-0.646 0-1.199 0.6-1.199 1.291v0c0 0.692 0.553 1.245 1.199 1.245h13.052c0.646 0 1.199-0.553 1.199-1.245v0c0-0.369-0.138-0.692-0.369-0.922z"></path>
</svg>
