<?xml version="1.0" encoding="utf-8"?>
<!-- Generated by IcoMoon.io -->
<!DOCTYPE svg PUBLIC "-//W3C//DTD SVG 1.1//EN" "http://www.w3.org/Graphics/SVG/1.1/DTD/svg11.dtd">
<svg version="1.1" xmlns="http://www.w3.org/2000/svg" xmlns:xlink="http://www.w3.org/1999/xlink" width="22" height="22" viewBox="0 0 22 22">
<path fill="#444444" d="M5.76 10.549c0.069 0.278 0.208 0.555 0.278 0.833 0.139 0.416 0.278 0.763 0.555 1.11 0.208 0.277 0.486 0.555 0.833 0.694l0.972 0.277c-0.347 0.208-0.694 0.417-0.972 0.764-0.347 0.347-0.486 0.833-0.694 1.319-0.347 0.902-0.347 1.804-0.833 2.637-0.069 0.208-0.208 0.347-0.278 0.555-0.139 0.139-0.208 0.278-0.416 0.347-0.208 0.138-0.486 0.208-0.763 0.208-0.208 0-0.486-0.069-0.694-0.208-0.139-0.208-0.278-0.347-0.347-0.555-0.069-0.138-0.069-0.278-0.069-0.416s0-0.347 0.069-0.486l2.36-7.079z"></path>
<path fill="#444444" d="M10.896 15.754c0.208 0.069 0.347 0.139 0.555 0.209s0.416 0.138 0.694 0.208c0.277 0.070 0.624 0.070 0.902 0l0.556-0.069 0.138 1.666c0 0.208 0.070 0.416 0.070 0.694 0 0.138 0 0.347-0.139 0.485-0.069 0.070-0.139 0.139-0.278 0.209-0.208 0.138-0.485 0.138-0.694 0.138-0.208 0-0.416-0.069-0.624-0.138-0.139-0.139-0.277-0.278-0.347-0.486-0.070-0.139-0.139-0.347-0.208-0.486l-0.625-2.429z"></path>
<path fill="#444444" d="M12.978 9.022c-0.347 0-0.694 0-1.041 0.069-0.278 0.069-0.625 0.208-0.902 0.278-0.347 0.139-0.625 0.278-0.902 0.555-0.278 0.208-0.486 0.486-0.625 0.763l-0.139 0.278-0.625-1.319-1.041-0.416 0.833 1.874c0 0.069 0.069 0.069 0.069 0.139 0.069 0.069 0.069 0.208 0.208 0.278 0.069 0.069 0.139 0.069 0.208 0.138 0.069 0 0.208 0 0.278 0h0.902c0.069 0 0.139 0 0.208 0 0.139 0 0.278 0.070 0.347 0.139 0.139 0.069 0.139 0.277 0.208 0.347 0 0.138 0 0.208 0 0.347 0 0.138-0.069 0.277-0.139 0.347s-0.208 0.138-0.347 0.138c-0.069 0-0.139 0-0.278 0h-1.943c-0.208 0-0.347-0.069-0.555-0.138-0.139-0.070-0.278-0.139-0.416-0.278s-0.278-0.278-0.347-0.416c-0.139-0.208-0.208-0.347-0.278-0.555l-1.319-2.707c-0.069-0.278-0.208-0.555-0.278-0.833-0.069-0.139-0.069-0.347-0.069-0.486 0-0.208 0-0.347 0.069-0.555 0.069-0.139 0.139-0.278 0.208-0.347 0.139-0.139 0.278-0.208 0.416-0.208 0.208-0.069 0.416 0 0.555 0s0.278 0.069 0.347 0.069 0.347 0.139 0.486 0.278c0.625 0.416 1.18 0.833 1.804 1.18 0.069 0.069 0.139 0.139 0.278 0.139 0.069 0 0.208 0.069 0.278 0.069 0.139 0 0.347 0 0.486-0.069 0.555-0.069 1.041-0.139 1.596-0.139 0.138 0 0.278 0 0.416 0 0.069 0 0.139 0 0.209 0.069 0.069 0 0.208 0.069 0.277 0.139s0.069 0.139 0.139 0.208l0.416 0.625z"></path>
<path fill="#444444" d="M16.517 10.965l-0.902-1.18 0.624-0.416c0.139-0.069 0.277-0.069 0.347-0.069 0.139 0 0.208 0 0.347 0.069 0.070 0.069 0.208 0.139 0.208 0.278 0.069 0.139 0.139 0.278 0.069 0.416 0 0.069 0 0.208-0.069 0.278l-0.625 0.625z"></path>
<path fill="#444444" d="M4.858 3.678c0.278 0.069 0.486 0.139 0.763 0.139 0.069 0 0.139 0 0.139 0 0.069 0 0.069-0.069 0.069-0.139s-0.069-0.139-0.139-0.208c0-0.069 0-0.139 0.069-0.208s0.139-0.069 0.208 0c0.069 0 0.139 0.069 0.208 0.069s0.139-0.069 0.208-0.069c0.069 0 0.139 0 0.208 0.069 0 0.069 0.069 0.069 0 0.139 0 0.069-0.069 0.069-0.069 0.139s0 0.069 0.069 0.139 0.208 0 0.347 0c0.208-0.069 0.347-0.069 0.555-0.139s0.347-0.139 0.555-0.208c0.208-0.139 0.416-0.208 0.625-0.347 0.278-0.139 0.555-0.208 0.833-0.278s0.555-0.069 0.833-0.139c0.347 0 0.694 0 1.041 0.069 0.277 0.069 0.624 0.208 0.902 0.347 0.209 0.139 0.416 0.278 0.625 0.486 0.138 0.208 0.278 0.416 0.416 0.625 0.139 0.139 0.209 0.347 0.347 0.555 0.069 0.208 0.209 0.416 0.278 0.625 0.069 0.139 0.138 0.278 0.278 0.416 0.069 0.139 0.208 0.208 0.347 0.347 0.069 0.069 0.139 0.069 0.139 0.069 0.069 0 0.069-0.069 0.069-0.139 0-0.139 0-0.208 0-0.278 0-0.139-0.069-0.208 0-0.347 0 0 0.070-0.069 0.139-0.069s0.138 0 0.138 0.069c0.069 0 0.139 0.069 0.209 0.139 0.069 0 0.138 0 0.277 0.069 0.070 0 0.139 0.069 0.139 0.069 0 0.069 0.069 0.139 0.069 0.139 0 0.069-0.069 0.069-0.138 0.069-0.070 0-0.139 0.069-0.139 0.069-0.069 0-0.138 0.069-0.138 0.139s-0.069 0.069 0 0.139 0.069 0.139 0.138 0.139 0.278 0.069 0.416 0.069c0.070 0 0.208 0 0.277 0h0.278c-0.069 0.069-0.138 0.069-0.138 0.139-0.208 0.208-0.278 0.278-0.347 0.347-0.070 0-0.139 0.069-0.209 0.069s-0.138 0-0.208 0-0.139 0-0.208-0.069c-0.069 0-0.139-0.069-0.209-0.069s-0.208 0-0.277 0c-0.070 0.069-0.070 0.139-0.139 0.208 0 0.069 0 0.208 0 0.278s0 0.069-0.069 0.139c0 0.139-0.069 0.139-0.139 0.139s-0.139-0.069-0.208-0.139c-0.069-0.069-0.139-0.069-0.209-0.069s-0.138-0.069-0.138-0.069-0.069-0.069-0.069-0.139 0-0.069 0-0.139c0.069-0.069 0.138-0.069 0.208-0.069s0.209-0.069 0.209-0.139c0.069-0.069 0.069-0.139 0-0.208-0.069-0.139-0.278-0.139-0.486-0.139s-0.347-0.069-0.486-0.139c-0.139-0.069-0.208-0.208-0.347-0.347-0.069-0.069-0.139-0.139-0.139-0.139-0.069 0-0.139 0.208-0.208 0.347s-0.069 0.208-0.139 0.347c-0.069 0.139-0.208 0.278-0.347 0.416-0.209 0.139-0.417 0.347-0.625 0.416-0.208 0.139-0.486 0.208-0.763 0.208-0.278 0.069-0.555 0.069-0.833 0-0.208 0-0.416-0.069-0.625-0.139-0.139-0.069-0.347-0.139-0.486-0.208-0.139-0.139-0.278-0.278-0.416-0.416-0.208-0.208-0.347-0.416-0.416-0.625-0.139-0.278-0.278-0.555-0.208-0.902l0.069-0.486-1.11-0.416c-0.139 0 0.069 0.208 0.069 0.347 0 0.069 0 0.069 0 0.139h-0.069c-0.069 0-0.069 0-0.139 0h-0.486c-0.069 0-0.139 0-0.139 0-0.069-0.069-0.139-0.139-0.139-0.208s0-0.139 0.069-0.208c0-0.069 0.069-0.139 0.069-0.208s-0.139-0.069-0.208-0.069c-0.139 0-0.208-0.069-0.278-0.069s-0.208-0.069-0.278-0.069c-0.069-0.069-0.139-0.139-0.208-0.208s-0.139-0.139-0.139-0.208z"></path>
<path fill="#444444" d="M16.448 11.659c-0.069-0.277-0.208-0.485-0.347-0.763-0.208-0.208-0.416-0.486-0.625-0.694s-0.486-0.416-0.763-0.555c-0.278-0.139-0.555-0.278-0.832-0.347s-0.625-0.139-0.903-0.139c-0.347 0-0.694 0.069-1.041 0.139-0.208 0.069-0.416 0.139-0.625 0.208-0.347 0.139-0.625 0.347-0.902 0.555-0.208 0.278-0.486 0.555-0.625 0.833-0.069 0.139-0.139 0.208-0.208 0.347l0.347 0.208 0.139-0.347c0.069-0.139 0.208-0.278 0.278-0.416l0.208 0.555c0.139 0.278 0.416 0.486 0.694 0.625 0.208 0.069 0.416 0.208 0.694 0.278 0.278 0.139 0.555 0.208 0.833 0.347 0.070 0 0.070 0 0.139-0.070 0 0.070 0.069 0.070 0.069 0.139s0 0.138 0 0.208c0.069 0.417 0.208 0.764-0.069 1.042-0.069 0.070-0.069 0.139-0.139 0.139s-0.139 0-0.208 0c-0.209 0-0.347-0.139-0.486-0.209-0.208-0.069-0.486-0.138-0.763-0.138-0.208 0-0.416 0-0.625 0s-0.416-0.069-0.555-0.139c-0.139-0.070-0.208-0.208-0.416-0.278-0.139 0-0.278 0-0.347 0-0.069 0.069-0.069 0.138-0.069 0.208 0 0.347 0.139 0.556 0.347 0.834s0.347 0.555 0.625 0.763c0.208 0.208 0.416 0.347 0.694 0.485 0.278 0.139 0.555 0.278 0.902 0.347s0.625 0.070 0.972 0.070 0.694 0 0.971-0.070c0.347-0.069 0.624-0.208 0.902-0.347 0.278-0.138 0.556-0.347 0.763-0.555 0.209-0.208 0.417-0.416 0.556-0.694 0.208-0.209 0.347-0.486 0.416-0.764 0.139-0.277 0.139-0.624 0.139-0.902 0-0.346-0.070-0.624-0.139-0.902zM11.451 11.451c-0.070 0-0.208 0-0.278-0.070-0.139-0.069-0.208-0.208-0.278-0.347s-0.139-0.208-0.208-0.347c-0.069-0.139-0.139-0.208-0.139-0.278 0-0.416 0.694-0.555 1.319-0.694 0.625-0.208 0.972-0.416 1.596-0.139 0.070 0 0.139 0.069 0.139 0.069s-0.069 0.069-0.139 0.139c-0.486 0.208-0.694 0.416-0.902 0.625-0.278 0.278-0.556 0.555-0.903 0.902-0.069 0.070-0.138 0.139-0.208 0.139zM13.117 15.407c0 0.069-0.070 0.139-0.070 0.209-0.069 0.069-0.277 0.069-0.416 0.069-0.625-0.069-1.11-0.209-1.596-0.486-0.416-0.278-0.971-0.625-1.179-1.112l-0.278-0.624c0.347 0.208 0.625 0.416 1.041 0.416 0.278 0.069 0.555 0 0.834 0 0.208 0 0.485 0.069 0.694 0.138 0.208 0.069 0.416 0.209 0.624 0.278 0.070 0 0.139 0 0.139 0l0.069 0.069c0.069 0.139 0.139 0.209 0.139 0.347 0.069 0.209 0.069 0.416 0 0.695zM13.256 11.937c-0.069 0.069-0.139 0.069-0.209 0.139-0.069 0-0.208 0-0.277 0-0.347-0.070-0.694-0.070-0.972-0.278-0.069-0.069-0.069-0.069-0.069-0.139s0-0.138 0.070-0.208c0.208-0.417 0.555-0.625 0.902-0.902 0.209-0.139 0.417-0.278 0.625-0.416 0.139-0.139 0.347-0.278 0.556-0.347 0.069 0 0.138-0.069 0.277-0.069 0.070 0 0.208 0 0.277 0 0.278 0.139 0.556 0.416 0.764 0.625 0.208 0.139 0.347 0.278 0.555 0.486 0.069 0.069 0.139 0.208 0.139 0.278s-0.139 0.069-0.208 0.069c-0.486 0.069-0.833 0.069-1.25 0.139-0.347 0.069-0.763 0.139-0.971 0.347-0.070 0.069-0.070 0.208-0.208 0.278zM15.546 14.505c-0.208 0.486-0.694 0.764-1.318 0.971-0.209 0.070-0.417 0.139-0.556 0-0.069-0.069-0.139-0.138-0.139-0.277-0.208-0.417-0.139-0.902-0.139-1.319 0-0.486-0.069-1.041 0.139-1.528 0-0.069 0.069-0.138 0.069-0.208s0.069-0.139 0.138-0.139c0.070-0.069 0.209-0.138 0.278-0.138s0.139 0 0.209 0.069c0.138 0.069 0.208 0.209 0.208 0.278 0.069 0.138 0.069 0.278 0.139 0.347 0.069 0.278 0.208 0.555 0.347 0.832 0.277 0.278 0.485 0.556 0.694 0.834 0 0.069 0 0.208-0.069 0.278zM16.309 12.77l-0.347 1.249c-0.278-0.278-0.486-0.555-0.694-0.832-0.139-0.209-0.208-0.487-0.347-0.764-0.069-0.208-0.208-0.417-0.278-0.625 0-0.070 0-0.139 0-0.209 0.069-0.069 0.208-0.069 0.278-0.069 0.347 0 0.555 0 0.832-0.208 0.069 0 0.139-0.069 0.139-0.069 0.070 0 0.070 0.069 0.139 0.139 0.278 0.486 0.417 0.972 0.278 1.389z"></path>
</svg>
