<?xml version="1.0" encoding="utf-8"?>
<!-- Generated by IcoMoon.io -->
<!DOCTYPE svg PUBLIC "-//W3C//DTD SVG 1.1//EN" "http://www.w3.org/Graphics/SVG/1.1/DTD/svg11.dtd">
<svg version="1.1" xmlns="http://www.w3.org/2000/svg" xmlns:xlink="http://www.w3.org/1999/xlink" width="11" height="22" viewBox="0 0 11 22">
<path fill="#444444" d="M10.897 13.553c-0.069-0.412-0.16-0.824-0.275-1.213-0.275-0.755-0.572-1.534-0.984-2.221-0.435-0.687-1.305-1.19-1.19-2.106 0.16-0.939 0.504-1.9 0.366-2.884-0.183-1.19-0.595-2.335-1.19-3.388-0.458-0.595-1.007-1.122-1.694-1.442-0.618-0.252-1.305-0.343-1.969-0.252-0.778 0.092-1.328 0.733-1.809 1.305-1.282 1.671-2.083 3.754-2.152 5.883 0.092 0.71 0.229 1.419 0.527 2.083 0.527 0.893 1.19 1.717 1.992 2.381 0.298 0.298 0.252 0.755 0.183 1.145-0.229 1.282-0.412 2.587-0.504 3.892-0.069 0.527 0.114 1.030 0.252 1.534 0.481 2.015 2.358 3.617 4.418 3.732 1.19 0.092 2.312-0.824 2.518-1.992 0.275-1.099 1.007-1.992 1.328-3.045 0.343-0.847 0.275-1.786 0.252-2.656 0-0.252-0.023-0.504-0.069-0.755v0zM10.462 13.392c-0.092 0.023-0.206 0.069-0.298 0.092-0.641-0.664-1.259-1.396-1.419-2.335 0.229-0.023 0.481-0.046 0.71-0.069 0.458 0.71 0.801 1.488 1.007 2.312zM10.599 14.537c0.137 0.824-0.114 1.74-0.687 2.358-0.069-0.206-0.137-0.389-0.114-0.595 0.023-0.664 0.069-1.305 0.069-1.969 0.206-0.046 0.412-0.092 0.618-0.137 0.046 0.114 0.092 0.229 0.114 0.343v0zM9.203 10.645c-0.206-0.069-0.527 0.16-0.687-0.046-0.252-0.321-0.298-0.755-0.527-1.099 0.114-0.114 0.229-0.229 0.343-0.343 0.343 0.481 0.664 0.961 0.87 1.488zM8.31 6.341c0 0-0.366 0.092-0.778 0.183-0.206 0.046-0.435-1.465-0.435-2.015 0.252-0.023 0.504-0.298 0.755-0.321l0.458 2.152zM7.6 3.732c-0.229 0.069-0.481 0.137-0.71 0.206-0.481-0.572-0.755-1.259-1.053-1.946 0.252-0.114 0.504-0.206 0.755-0.298 0.321 0.687 0.687 1.351 1.007 2.037zM9.501 16.368c0.046 0.229 0.069 0.458 0.092 0.778-0.412 0.114-0.778 0.229-1.213 0.298-0.092-0.412-0.137-0.549-0.229-0.961 0.412-0.16 0.87-0.298 1.213-0.618 0.069 0.206 0.114 0.366 0.137 0.504zM8.997 13.873c0.092 0.458 0.137 0.916 0.206 1.374-0.366 0.114-0.733 0.252-1.122 0.366-0.092-0.435-0.183-0.87-0.275-1.305 0.366-0.298 0.71-0.618 1.076-0.893 0.069 0.16 0.092 0.298 0.114 0.458v0zM9.569 17.696c-0.092 0.435-0.183 0.893-0.298 1.328-0.046 0.023-0.137 0.046-0.183 0.046-0.183-0.412-0.343-0.801-0.504-1.236 0.321-0.023 0.641-0.114 0.984-0.137v0zM8.631 12.706c-0.321 0.389-0.595 0.824-1.007 1.099-0.114-0.343-0.343-0.664-0.366-1.007 0.275-0.412 0.618-0.87 1.168-0.939 0.046 0.298 0.114 0.572 0.206 0.847zM6.479 1.259c-0.321 0.137-0.664 0.366-1.030 0.298-0.343-0.298-0.641-0.664-0.893-1.053 0.733-0.069 1.419 0.252 1.923 0.755zM8.173 11.172c-0.321 0.252-0.618 0.527-0.961 0.733-0.229-0.549-0.458-1.099-0.641-1.648 0.321-0.114 0.618-0.229 0.939-0.343 0.229 0.435 0.458 0.847 0.664 1.259zM6.959 7.12c-0.389 0.298-0.778 0.572-1.145 0.87-0.206-0.435-0.366-0.916-0.504-1.374 0.435-0.275 0.939-0.481 1.442-0.595 0.046 0.366 0.114 0.733 0.206 1.099v0zM6.616 5.517c-0.481 0.183-0.87 0.527-1.328 0.778-0.069-0.298-0.137-0.595-0.206-0.893 0.206-0.069 0.481-0.046 0.641-0.206 0.206-0.206 0.389-0.458 0.641-0.595 0.092 0.298 0.16 0.618 0.252 0.916zM6.158 3.846c-0.252 0.412-0.595 0.824-1.122 0.893-0.183-0.343-0.389-0.687-0.527-1.053 0.504-0.069 0.961-0.229 1.351-0.527 0.114 0.229 0.229 0.458 0.298 0.687zM5.471 2.724c-0.389 0.16-0.801 0.343-1.19 0.504-0.137-0.206-0.321-0.435-0.343-0.71 0.275-0.343 0.549-0.71 0.939-0.961 0.206 0.412 0.435 0.755 0.595 1.168zM7.692 17.147c-0.252 0.206-0.549 0.366-0.87 0.481-0.114-0.435-0.343-0.87-0.343-1.328 0.16-0.389 0.481-0.687 0.755-1.007 0.137 0.618 0.275 1.236 0.458 1.854zM7.12 14.56c0.023 0.114-0.069 0.183-0.16 0.252-0.252 0.206-0.549 0.389-0.847 0.549-0.092-0.343-0.16-0.71-0.252-1.076 0.252-0.275 0.458-0.595 0.71-0.87 0.275 0.321 0.435 0.733 0.549 1.145 0 0 0 0 0 0zM4.464 1.374c-0.275 0.229-0.527 0.641-0.916 0.687-0.298 0.183-0.527-0.183-0.71-0.366 0.458-0.481 0.298-0.435 0.618-0.778 0.183-0.046 0.389-0.092 0.572-0.137 0.183 0.183 0.321 0.389 0.435 0.595zM6.41 13.186c-0.321 0.183-0.618 0.412-0.939 0.618-0.092-0.549-0.275-1.099-0.343-1.648 0.137-0.275 0.412-0.481 0.572-0.733 0.298 0.549 0.527 1.145 0.71 1.763v0zM7.578 20.237c0 0.023 0 0.023 0 0.046-0.389 0.275-0.389 0.252-0.755 0.549-0.206-0.252-0.366-0.527-0.527-0.801l0.961-0.435c0.046 0.16 0.275 0.458 0.321 0.641v0zM5.334 8.058c-0.504 0.504-1.099 0.916-1.671 1.305-0.343-0.572-0.527-1.213-0.733-1.831 0.366-0.046 0.733 0.069 1.099 0.023 0.275-0.206 0.504-0.458 0.778-0.687 0.206 0.389 0.366 0.778 0.527 1.19zM7.165 18.932c-0.458 0.458-0.366 0.343-1.007 0.549-0.137-0.252-0.252-0.527-0.321-0.801l1.007-0.527c0.069 0.206 0.252 0.549 0.321 0.778zM6.593 17.742c0.023 0.183-0.206 0.321-0.343 0.435-0.275 0.137-0.572 0.389-0.893 0.275-0.389-0.435-0.481-1.030-0.641-1.58 0.435-0.343 0.618-0.984 1.007-1.076 0.321 0.618 0.572 1.236 0.847 1.854 0 0.023 0.023 0.069 0.023 0.092v0zM4.258 6.112c0 0.046 0.023 0.114 0.023 0.16-0.092 0.298-0.298 0.572-0.527 0.824-0.298 0.252-0.664 0.069-0.916-0.114-0.16-0.252-0.229-0.549-0.321-0.801 0.298-0.16 0.618-0.275 0.847-0.481 0.206-0.16 0.275-0.412 0.343-0.641 0.069-0.023 0.137-0.046 0.206-0.069 0.114 0.366 0.275 0.733 0.343 1.122zM3.503 3.8c0 0.023 0 0.069 0.023 0.092-0.114 0.298-0.275 0.572-0.435 0.847-0.183 0.206-0.527 0.183-0.755 0.298l-0.252-0.687c0.435-0.321 0.755-0.778 1.145-1.145 0.114 0.206 0.252 0.389 0.275 0.595v0zM5.563 15.498c-0.275 0.183-0.572 0.366-0.824 0.572-0.298-0.549-0.16-1.168-0.321-1.763 0.343-0.069 0.481-0.183 0.824-0.252 0.092 0.481 0.183 0.961 0.321 1.442v0zM2.976 2.793c0 0.023 0 0.069 0 0.092-0.229 0.458-0.618 0.801-0.893 1.236-0.023 0-0.114-0.023-0.16-0.046-0.069-0.206-0.114-0.435-0.183-0.641 0.343-0.275 0.664-0.572 0.916-0.939 0.092 0.114 0.275 0.183 0.321 0.298v0zM5.838 20.031c-0.366 0.252-0.618 0.664-1.030 0.87-0.183-0.092-1.259-1.465-1.282-1.671l1.351-0.366c0.206 0.16 0.801 1.007 0.961 1.168zM2.495 2.083c-0.023 0.412-0.321 0.71-0.641 0.961 0.023-0.389 0.183-0.755 0.366-1.099l0.275 0.137zM4.006 13.163c0 0.046 0.023 0.092 0.023 0.137-0.069 0.389-0.321 0.755-0.595 1.030-0.092-0.481-0.527-1.007-0.206-1.488 0.092-0.275 0.321-0.435 0.527-0.618 0.092 0.298 0.183 0.618 0.252 0.939v0zM4.144 14.4c0.114 0.71 0.183 1.419 0.298 2.106-0.412 0.069-0.824 0.114-1.236 0.183-0.092-0.664 0.092-1.305 0.206-1.946 0.046-0.343 0.458-0.366 0.733-0.343zM4.601 18.268c-0.412 0.183-0.801 0.366-1.213 0.504-0.16-0.366-0.366-0.733-0.435-1.145 0.389-0.275 0.893-0.298 1.282-0.549 0.16 0.366 0.298 0.755 0.366 1.19zM2.701 9.134c-0.527-0.023-1.076 0.023-1.602-0.023 0.343-0.412 0.733-0.847 1.19-1.122 0.137 0.366 0.298 0.733 0.412 1.145v0zM1.786 5.334c0 0.343-0.183 0.618-0.321 0.893-0.252 0.023-0.527 0.046-0.778 0.069-0.023-0.114-0.046-0.343-0.046-0.458 0.206 0 0.412 0 0.618 0.023 0.16-0.183 0.321-0.366 0.527-0.527zM2.106 7.28c-0.481 0.092-0.778 0.527-1.259 0.664-0.069-0.321-0.16-0.664-0.183-0.984 0.229-0.023 0.481 0 0.71-0.046 0.206-0.092 0.321-0.298 0.458-0.435 0.092 0.275 0.183 0.527 0.275 0.801v0zM1.58 4.533c0.023 0.137 0.046 0.275-0.046 0.412-0.229 0.229-0.572 0.229-0.87 0.298 0.046-0.275 0.046-0.572 0.16-0.824 0.206-0.137 0.435-0.206 0.664-0.298 0 0.114 0.069 0.275 0.092 0.412v0z"></path>
</svg>
